<svg xmlns="http://www.w3.org/2000/svg" width="1052" height="912" viewBox="0 0 1052 912">
<g>
<path d="M 466.00 608.90 C460.77,609.43 448.13,610.18 437.91,610.56 C421.42,611.17 419.24,611.07 418.70,609.66 C418.68,609.61 418.66,609.56 418.64,609.51 C418.51,609.19 418.41,608.93 418.47,608.72 C418.67,607.88 421.13,607.58 433.00,605.99 C437.67,605.36 446.23,604.21 452.00,603.43 C470.33,600.97 494.51,596.59 517.00,591.65 C523.71,590.18 546.69,584.18 555.50,581.61 C558.25,580.80 562.30,579.64 564.50,579.03 C566.70,578.41 569.40,577.50 570.50,577.00 C571.60,576.50 574.08,575.66 576.00,575.13 C577.92,574.59 581.97,573.19 585.00,572.00 C588.03,570.82 591.62,569.47 593.00,569.01 C603.69,565.41 629.09,553.92 641.00,547.29 C644.03,545.60 648.53,543.18 651.00,541.91 C657.31,538.67 674.01,527.71 683.50,520.58 C711.89,499.26 737.58,472.00 747.87,452.27 C753.11,442.24 754.19,438.72 754.73,429.96 C755.18,422.68 754.95,420.83 753.22,417.46 C749.40,409.99 744.22,406.72 732.85,404.59 C719.91,402.17 712.46,402.41 689.50,406.02 C679.77,407.55 661.50,411.41 656.55,412.98 C654.87,413.51 649.90,414.91 645.50,416.09 C626.11,421.28 587.17,433.87 577.50,438.08 C575.12,439.11 567.70,441.74 563.50,443.04 C561.85,443.55 559.60,444.37 558.50,444.87 C556.30,445.85 552.02,447.53 541.75,451.43 C524.62,457.95 521.37,459.20 519.50,460.02 C518.40,460.50 508.27,464.77 497.00,469.51 C485.73,474.24 475.15,478.76 473.50,479.54 C469.54,481.40 436.09,496.00 433.41,497.03 C431.59,497.73 416.86,504.33 404.50,509.99 C398.11,512.92 389.16,516.94 380.00,521.00 C375.33,523.07 368.12,526.34 364.00,528.26 C359.88,530.19 350.44,534.56 343.03,537.97 C335.61,541.39 322.34,547.57 313.53,551.69 C304.71,555.82 296.15,559.80 294.50,560.53 C292.85,561.26 288.00,563.46 283.73,565.43 C279.45,567.39 275.74,569.00 275.48,569.00 C275.22,569.00 270.85,570.94 265.76,573.32 C250.95,580.23 220.18,593.12 210.50,596.48 C207.75,597.43 204.60,598.59 203.50,599.04 C202.40,599.50 198.35,600.85 194.50,602.03 C190.65,603.21 186.49,604.58 185.26,605.07 C180.33,607.01 165.00,608.32 161.06,607.13 C150.26,603.90 154.68,590.74 175.87,563.06 C184.18,552.20 197.06,537.24 213.00,519.93 C219.88,512.47 234.95,496.05 246.50,483.44 C258.05,470.83 274.25,453.32 282.51,444.51 C290.76,435.70 300.18,425.58 303.44,422.00 C358.21,361.88 373.96,345.69 387.59,335.46 C395.70,329.38 408.73,322.88 419.50,319.54 C424.45,318.01 429.40,316.39 430.50,315.95 C432.52,315.14 441.62,313.02 454.50,310.36 C468.07,307.56 489.28,304.04 508.50,301.42 C514.55,300.59 524.22,299.25 530.00,298.44 C542.46,296.69 560.28,294.59 575.50,293.07 C581.55,292.46 590.10,291.51 594.50,290.95 C598.90,290.40 612.97,289.45 625.77,288.86 C648.36,287.82 658.18,288.20 654.95,290.01 C653.54,290.80 638.61,292.96 620.00,295.08 C615.33,295.62 610.75,296.28 609.84,296.56 C608.93,296.85 604.21,297.73 599.34,298.52 C594.48,299.32 587.12,300.62 583.00,301.42 C578.88,302.23 572.12,303.54 568.00,304.35 C556.56,306.58 534.12,312.04 522.00,315.54 C519.53,316.25 514.12,317.80 510.00,318.99 C505.88,320.17 501.60,321.52 500.50,321.97 C499.40,322.43 495.58,323.80 492.00,325.02 C488.42,326.23 484.08,327.85 482.35,328.61 C480.62,329.38 478.78,330.00 478.27,330.00 C477.52,330.00 469.05,333.42 458.50,337.99 C413.90,357.30 371.86,386.05 345.15,415.50 C326.39,436.18 315.00,457.35 315.00,471.54 C315.00,478.43 318.97,486.29 324.19,489.75 C332.81,495.45 354.38,497.79 371.88,494.91 C391.04,491.77 423.43,484.65 430.35,482.06 C431.53,481.62 434.98,480.54 438.00,479.66 C446.77,477.12 456.94,473.92 464.50,471.33 C468.35,470.01 474.20,468.01 477.50,466.89 C480.80,465.77 484.40,464.48 485.50,464.02 C486.60,463.56 492.23,461.51 498.00,459.47 C510.01,455.21 525.03,449.50 529.65,447.42 C531.38,446.64 533.30,446.00 533.91,446.00 C534.53,446.00 535.81,445.56 536.76,445.03 C537.72,444.49 541.42,442.89 545.00,441.48 C548.58,440.07 552.40,438.50 553.50,438.00 C554.60,437.49 561.12,434.78 568.00,431.98 C574.88,429.17 581.40,426.48 582.50,425.99 C590.59,422.42 593.95,421.00 594.36,421.00 C594.61,421.00 598.35,419.38 602.66,417.41 C617.29,410.71 619.50,409.75 623.00,408.50 C624.92,407.81 629.42,405.88 633.00,404.21 C641.74,400.12 659.79,391.99 669.00,387.99 C675.97,384.96 683.43,381.57 697.00,375.26 C707.31,370.47 716.49,366.25 728.00,361.01 C734.33,358.13 743.10,354.09 747.50,352.02 C751.90,349.96 757.75,347.25 760.50,346.01 C765.50,343.76 769.74,341.80 786.31,334.10 C791.15,331.84 795.31,330.00 795.54,330.00 C795.77,330.00 799.45,328.40 803.73,326.45 C808.00,324.49 812.40,322.49 813.50,322.01 C814.60,321.52 818.65,319.70 822.50,317.97 C841.99,309.17 873.29,297.69 887.50,294.15 C928.72,283.85 925.43,301.71 875.63,358.50 C856.77,380.02 846.30,391.58 828.98,410.00 C796.34,444.73 770.08,473.15 744.25,501.68 C714.64,534.38 694.65,554.35 681.81,564.02 C666.10,575.86 644.85,583.67 612.50,589.49 C607.55,590.38 600.12,591.73 596.00,592.50 C575.97,596.23 524.72,602.99 490.00,606.48 C482.02,607.29 471.23,608.37 466.00,608.90 Z" fill="rgb(3,3,3)"/>
<path d="M 420.89 610.76 C417.19,610.70 414.82,610.52 414.63,610.21 C413.70,608.71 414.58,608.30 423.17,607.34 C419.59,607.88 418.59,608.20 418.47,608.72 C418.41,608.93 418.51,609.19 418.64,609.51 C418.66,609.56 418.68,609.61 418.70,609.66 C418.91,610.22 419.38,610.57 420.89,610.76 ZM 500.09 595.20 C510.32,593.10 520.57,590.79 530.49,588.33 C524.72,589.81 519.62,591.08 517.00,591.65 C511.43,592.87 505.75,594.06 500.09,595.20 ZM 440.38 604.99 C442.83,604.59 446.91,604.01 451.16,603.47 C456.10,602.84 461.20,602.11 466.43,601.30 C461.34,602.11 456.49,602.83 452.00,603.43 ZM 466.00 608.90 C471.23,608.37 482.02,607.29 490.00,606.48 C482.02,607.29 471.23,608.38 466.00,608.92 C459.29,609.61 449.28,610.16 439.87,610.48 C449.70,610.08 461.11,609.40 466.00,608.90 Z" fill="rgb(92,92,92)"/>
<path d="M 0.00 456.00 L 0.00 0.00 L 526.00 0.00 L 1052.00 0.00 L 1052.00 456.00 L 1052.00 912.00 L 526.00 912.00 L 0.00 912.00 L 0.00 456.00 ZM 466.00 608.92 C471.23,608.38 482.02,607.29 490.00,606.48 C524.72,602.99 575.97,596.23 596.00,592.50 C600.12,591.73 607.55,590.38 612.50,589.49 C644.85,583.67 666.10,575.86 681.81,564.02 C694.65,554.35 714.64,534.38 744.25,501.68 C770.08,473.15 796.34,444.73 828.98,410.00 C846.30,391.58 856.77,380.02 875.63,358.50 C925.43,301.71 928.72,283.85 887.50,294.15 C873.29,297.69 841.99,309.17 822.50,317.97 C818.65,319.70 814.60,321.52 813.50,322.01 C812.40,322.49 808.00,324.49 803.73,326.45 C799.45,328.40 795.77,330.00 795.54,330.00 C795.31,330.00 791.15,331.84 786.31,334.10 C769.74,341.80 765.50,343.76 760.50,346.01 C757.75,347.25 751.90,349.96 747.50,352.02 C743.10,354.09 734.33,358.13 728.00,361.01 C716.49,366.25 707.31,370.47 697.00,375.26 C683.43,381.57 675.97,384.96 669.00,387.99 C659.79,391.99 641.74,400.12 633.00,404.21 C629.42,405.88 624.92,407.81 623.00,408.50 C619.50,409.75 617.29,410.71 602.66,417.41 C598.35,419.38 594.61,421.00 594.36,421.00 C593.95,421.00 590.59,422.42 582.50,425.99 C581.40,426.48 574.88,429.17 568.00,431.98 C561.12,434.78 554.60,437.49 553.50,438.00 C552.40,438.50 548.58,440.07 545.00,441.48 C541.42,442.89 537.72,444.49 536.76,445.03 C535.81,445.56 534.53,446.00 533.91,446.00 C533.30,446.00 531.38,446.64 529.65,447.42 C525.03,449.50 510.01,455.21 498.00,459.47 C492.23,461.51 486.60,463.56 485.50,464.02 C484.40,464.48 480.80,465.77 477.50,466.89 C474.20,468.01 468.35,470.01 464.50,471.33 C456.94,473.92 446.77,477.12 438.00,479.66 C434.98,480.54 431.53,481.62 430.35,482.06 C423.43,484.65 391.04,491.77 371.88,494.91 C354.38,497.79 332.81,495.45 324.19,489.75 C318.97,486.29 315.00,478.43 315.00,471.54 C315.00,457.35 326.39,436.18 345.15,415.50 C371.86,386.05 413.90,357.30 458.50,337.99 C469.05,333.42 477.52,330.00 478.27,330.00 C478.78,330.00 480.62,329.38 482.35,328.61 C484.08,327.85 488.42,326.23 492.00,325.02 C495.58,323.80 499.40,322.43 500.50,321.97 C501.60,321.52 505.88,320.17 510.00,318.99 C514.12,317.80 519.53,316.25 522.00,315.54 C534.12,312.04 556.56,306.58 568.00,304.35 C572.12,303.54 578.88,302.23 583.00,301.42 C587.12,300.62 594.48,299.32 599.34,298.52 C604.21,297.73 608.93,296.85 609.84,296.56 C610.75,296.28 615.33,295.62 620.00,295.08 C638.61,292.96 653.54,290.80 654.95,290.01 C658.18,288.20 648.36,287.82 625.77,288.86 C612.97,289.45 598.90,290.40 594.50,290.95 C590.10,291.51 581.55,292.46 575.50,293.07 C560.28,294.59 542.46,296.69 530.00,298.44 C524.22,299.25 514.55,300.59 508.50,301.42 C489.28,304.04 468.07,307.56 454.50,310.36 C441.62,313.02 432.52,315.14 430.50,315.95 C429.40,316.39 424.45,318.01 419.50,319.54 C408.73,322.88 395.70,329.38 387.59,335.46 C373.96,345.69 358.21,361.88 303.44,422.00 C300.18,425.58 290.76,435.70 282.51,444.51 C274.25,453.32 258.05,470.83 246.50,483.44 C234.95,496.05 219.88,512.47 213.00,519.93 C197.06,537.24 184.18,552.20 175.87,563.06 C154.68,590.74 150.26,603.90 161.06,607.13 C165.00,608.32 180.33,607.01 185.26,605.07 C186.49,604.58 190.65,603.21 194.50,602.03 C198.35,600.85 202.40,599.50 203.50,599.04 C204.60,598.59 207.75,597.43 210.50,596.48 C220.18,593.12 250.95,580.23 265.76,573.32 C270.85,570.94 275.22,569.00 275.48,569.00 C275.74,569.00 279.45,567.39 283.73,565.43 C288.00,563.46 292.85,561.26 294.50,560.53 C296.15,559.80 304.71,555.82 313.53,551.69 C322.34,547.57 335.61,541.39 343.03,537.97 C350.44,534.56 359.88,530.19 364.00,528.26 C368.12,526.34 375.33,523.07 380.00,521.00 C389.16,516.94 398.11,512.92 404.50,509.99 C416.86,504.33 431.59,497.73 433.41,497.03 C436.09,496.00 469.54,481.40 473.50,479.54 C475.15,478.76 485.73,474.24 497.00,469.51 C508.27,464.77 518.40,460.50 519.50,460.02 C521.37,459.20 524.62,457.95 541.75,451.43 C552.02,447.53 556.30,445.85 558.50,444.87 C559.60,444.37 561.85,443.55 563.50,443.04 C567.70,441.74 575.12,439.11 577.50,438.08 C587.17,433.87 626.11,421.28 645.50,416.09 C649.90,414.91 654.87,413.51 656.55,412.98 C661.50,411.41 679.77,407.55 689.50,406.02 C712.46,402.41 719.91,402.17 732.85,404.59 C744.22,406.72 749.40,409.99 753.22,417.46 C754.95,420.83 755.18,422.68 754.73,429.96 C754.19,438.72 753.11,442.24 747.87,452.27 C737.58,472.00 711.89,499.26 683.50,520.58 C674.01,527.71 657.31,538.67 651.00,541.91 C648.53,543.18 644.03,545.60 641.00,547.29 C629.09,553.92 603.69,565.41 593.00,569.01 C591.62,569.47 588.03,570.82 585.00,572.00 C581.97,573.19 577.92,574.59 576.00,575.13 C574.08,575.66 571.60,576.50 570.50,577.00 C569.40,577.50 566.70,578.41 564.50,579.03 C562.30,579.64 558.25,580.80 555.50,581.61 C523.49,590.96 483.63,599.32 451.16,603.47 C444.93,604.27 439.08,605.14 438.16,605.41 C437.25,605.69 431.79,606.41 426.04,607.03 C414.78,608.23 413.61,608.56 414.63,610.21 C415.39,611.43 450.02,610.56 466.00,608.92 Z" fill="rgb(254,254,254)"/>
</g>
</svg>