<svg xmlns="http://www.w3.org/2000/svg" width="1052" height="968" viewBox="0 0 1052 968">
<g>
<path d="M 0.00 0.00 L 1052.00 0.00 L 1052.00 968.00 L 0.00 968.00 ZM 431.00 611.11 C431.00,611.91 437.00,612.07 452.25,611.69 C471.74,611.19 496.72,608.93 531.00,604.56 C557.02,601.24 576.45,598.39 593.00,595.46 C630.04,588.92 648.87,582.22 663.82,570.29 C673.69,562.41 696.41,539.37 719.82,513.50 C732.27,499.75 755.29,474.82 770.98,458.09 C839.95,384.56 862.94,356.49 865.54,342.66 C867.41,332.67 855.88,331.61 831.51,339.55 C810.42,346.42 777.67,360.01 742.17,376.63 C737.04,379.03 732.67,381.00 732.46,381.00 C732.25,381.00 727.45,383.20 721.79,385.89 C704.76,393.99 696.08,398.00 695.58,398.00 C695.14,398.00 689.78,400.49 665.69,411.90 C660.84,414.20 654.54,417.00 651.69,418.12 C648.84,419.25 646.05,420.52 645.50,420.96 C644.95,421.40 643.38,422.10 642.00,422.52 C640.63,422.95 635.90,424.98 631.50,427.05 C622.49,431.29 611.46,436.13 596.00,442.63 C590.22,445.06 584.74,447.47 583.81,447.99 C582.89,448.51 575.91,451.46 568.31,454.55 C560.72,457.64 553.15,460.77 551.50,461.52 C548.76,462.77 540.82,465.88 515.50,475.64 C499.52,481.80 496.74,482.82 481.50,487.99 C473.25,490.80 465.15,493.56 463.50,494.13 C459.83,495.41 449.22,498.49 438.50,501.39 C434.10,502.58 430.05,503.82 429.50,504.14 C428.95,504.47 425.35,505.29 421.50,505.97 C417.65,506.65 412.25,507.81 409.50,508.54 C400.30,510.99 386.44,512.24 372.91,511.85 C361.10,511.50 358.91,511.16 354.55,508.98 C351.83,507.61 348.23,504.77 346.55,502.65 C343.68,499.04 343.50,498.30 343.50,490.15 C343.51,482.15 343.80,480.90 347.38,473.50 C364.14,438.93 406.76,403.05 460.50,378.30 C484.28,367.35 503.36,360.64 533.00,352.83 C560.14,345.68 594.18,339.30 626.00,335.42 C632.88,334.58 638.86,333.53 639.30,333.09 C640.75,331.65 629.73,331.17 615.47,332.05 C594.59,333.33 566.97,335.78 554.00,337.49 C547.67,338.32 537.33,339.68 531.00,340.50 C494.79,345.22 474.51,348.58 456.00,352.91 C414.46,362.65 405.13,368.86 363.44,414.50 C357.92,420.55 345.09,434.48 334.95,445.45 C230.87,557.98 221.46,568.71 209.59,588.37 C202.60,599.94 202.13,606.57 208.13,609.05 C214.44,611.67 233.01,607.25 261.50,596.35 C266.45,594.46 271.85,592.28 273.50,591.51 C275.15,590.74 289.33,584.40 305.00,577.41 C320.67,570.43 339.06,562.08 345.85,558.86 C352.64,555.64 358.34,553.00 358.50,553.00 C358.66,553.00 364.36,550.37 371.15,547.16 C377.94,543.95 387.77,539.41 393.00,537.07 C398.23,534.74 405.79,531.29 409.80,529.41 C413.82,527.54 417.33,526.00 417.61,526.00 C417.89,526.00 420.46,524.92 423.31,523.59 C434.25,518.51 441.91,515.07 453.50,510.05 C460.10,507.19 467.30,503.99 469.50,502.95 C471.70,501.90 478.45,498.99 484.50,496.47 C490.55,493.96 499.55,490.15 504.50,488.00 C512.56,484.52 520.72,481.27 543.50,472.47 C547.35,470.98 553.20,468.72 556.50,467.44 C562.75,465.02 566.77,463.55 578.50,459.40 C591.53,454.80 600.48,451.80 606.50,450.02 C609.80,449.04 617.00,446.87 622.50,445.19 C667.69,431.42 704.73,428.17 717.49,436.87 C726.20,442.80 728.11,452.02 723.37,465.17 C716.58,483.99 698.71,505.53 672.50,526.48 C644.76,548.65 621.44,561.75 584.00,576.22 C560.63,585.25 528.24,594.33 503.00,598.92 C497.23,599.97 491.83,601.09 491.00,601.41 C488.26,602.47 440.78,609.28 431.25,609.98 C431.11,609.99 431.00,610.50 431.00,611.11 Z" fill="rgb(0,0,0)"/>
<path d="M 431.00 611.11 C431.00,610.50 431.11,609.99 431.25,609.98 C440.78,609.28 488.26,602.47 491.00,601.41 C491.83,601.09 497.23,599.97 503.00,598.92 C528.24,594.33 560.63,585.25 584.00,576.22 C621.44,561.75 644.76,548.65 672.50,526.48 C698.71,505.53 716.58,483.99 723.37,465.17 C728.11,452.02 726.20,442.80 717.49,436.87 C704.73,428.17 667.69,431.42 622.50,445.19 C617.00,446.87 609.80,449.04 606.50,450.02 C600.48,451.80 591.53,454.80 578.50,459.40 C566.77,463.55 562.75,465.02 556.50,467.44 C553.20,468.72 547.35,470.98 543.50,472.47 C520.72,481.27 512.56,484.52 504.50,488.00 C499.55,490.15 490.55,493.96 484.50,496.47 C478.45,498.99 471.70,501.90 469.50,502.95 C467.30,503.99 460.10,507.19 453.50,510.05 C441.91,515.07 434.25,518.51 423.31,523.59 C420.46,524.92 417.89,526.00 417.61,526.00 C417.33,526.00 413.82,527.54 409.80,529.41 C405.79,531.29 398.23,534.74 393.00,537.07 C387.77,539.41 377.94,543.95 371.15,547.16 C364.36,550.37 358.66,553.00 358.50,553.00 C358.34,553.00 352.64,555.64 345.85,558.86 C339.06,562.08 320.67,570.43 305.00,577.41 C289.33,584.40 275.15,590.74 273.50,591.51 C271.85,592.28 266.45,594.46 261.50,596.35 C233.01,607.25 214.44,611.67 208.13,609.05 C202.13,606.57 202.60,599.94 209.59,588.37 C221.46,568.71 230.87,557.98 334.95,445.45 C345.09,434.48 357.92,420.55 363.44,414.50 C405.13,368.86 414.46,362.65 456.00,352.91 C474.51,348.58 494.79,345.22 531.00,340.50 C537.33,339.68 547.67,338.32 554.00,337.49 C566.97,335.78 594.59,333.33 615.47,332.05 C629.73,331.17 640.75,331.65 639.30,333.09 C638.86,333.53 632.88,334.58 626.00,335.42 C594.18,339.30 560.14,345.68 533.00,352.83 C503.36,360.64 484.28,367.35 460.50,378.30 C406.76,403.05 364.14,438.93 347.38,473.50 C343.80,480.90 343.51,482.15 343.50,490.15 C343.50,498.30 343.68,499.04 346.55,502.65 C348.23,504.77 351.83,507.61 354.55,508.98 C358.91,511.16 361.10,511.50 372.91,511.85 C386.44,512.24 400.30,510.99 409.50,508.54 C412.25,507.81 417.65,506.65 421.50,505.97 C425.35,505.29 428.95,504.47 429.50,504.14 C430.05,503.82 434.10,502.58 438.50,501.39 C449.22,498.49 459.83,495.41 463.50,494.13 C465.15,493.56 473.25,490.80 481.50,487.99 C496.74,482.82 499.52,481.80 515.50,475.64 C540.82,465.88 548.76,462.77 551.50,461.52 C553.15,460.77 560.72,457.64 568.31,454.55 C575.91,451.46 582.89,448.51 583.81,447.99 C584.74,447.47 590.22,445.06 596.00,442.63 C611.46,436.13 622.49,431.29 631.50,427.05 C635.90,424.98 640.63,422.95 642.00,422.52 C643.38,422.10 644.95,421.40 645.50,420.96 C646.05,420.52 648.84,419.25 651.69,418.12 C654.54,417.00 660.84,414.20 665.69,411.90 C689.78,400.49 695.14,398.00 695.58,398.00 C696.08,398.00 704.76,393.99 721.79,385.89 C727.45,383.20 732.25,381.00 732.46,381.00 C732.67,381.00 737.04,379.03 742.17,376.63 C777.67,360.01 810.42,346.42 831.51,339.55 C855.88,331.61 867.41,332.67 865.54,342.66 C862.94,356.49 839.95,384.56 770.98,458.09 C755.29,474.82 732.27,499.75 719.82,513.50 C696.41,539.37 673.69,562.41 663.82,570.29 C648.87,582.22 630.04,588.92 593.00,595.46 C576.45,598.39 557.02,601.24 531.00,604.56 C496.72,608.93 471.74,611.19 452.25,611.69 C437.00,612.07 431.00,611.91 431.00,611.11 Z" fill="rgb(252,252,252)"/>
</g>
</svg>